<?xml version="1.0" encoding="UTF-8"?>
<svg width="600px" height="600px" viewBox="0 0 600 600" version="1.1" xmlns="http://www.w3.org/2000/svg" xmlns:xlink="http://www.w3.org/1999/xlink">
    <title>assets/icon</title>
    <g id="/assets/icon" stroke="none" fill="none" fill-rule="evenodd" stroke-width="1">
        <g id="Group" transform="translate(314, 74)" fill="#000000" stroke="#979797">
            <ellipse id="Oval" cx="211.261484" cy="61.7304965" rx="61.2385159" ry="61.2304965"></ellipse>
            <ellipse id="Oval" cx="61.7385159" cy="61.7304965" rx="61.2385159" ry="61.2304965"></ellipse>
            <ellipse id="Oval" cx="211.261484" cy="210.269504" rx="61.2385159" ry="61.2304965"></ellipse>
            <ellipse id="Oval" cx="61.7385159" cy="210.269504" rx="61.2385159" ry="61.2304965"></ellipse>
        </g>
        <g id="Group" transform="translate(13.2893, 73.5452)" fill="#000000">
            <rect id="Rectangle" x="93.4548495" y="0.454849498" width="86.4214047" height="272"></rect>
            <rect id="Rectangle" transform="translate(136.2107, 136) rotate(90) translate(-136.2107, -136)" x="93" y="0" width="86.4214047" height="272"></rect>
        </g>
        <g id="ARCADE" transform="translate(0.12, 409.04)" fill="#000000">
            <path d="M24.6027678,115.610818 L0,115.610818 L51.3582778,0.926121372 L75.0384418,0.926121372 L93.4905177,115.610818 L70.5791902,115.610818 L67.3500769,90.914248 L34.7514095,90.914248 L24.6027678,115.610818 Z M41.2096361,77.6398417 L65.5048693,77.6398417 L59.9692465,31.025066 L59.6617119,31.025066 L41.2096361,77.6398417 Z" id="Shape" fill-rule="nonzero"></path>
            <path d="M134.392619,69.76781 L128.549462,115.610818 L106.253203,115.610818 L120.861097,2.31530343 L156.842645,2.31530343 C163.19836,2.31530343 168.75961,3.42150396 173.526397,5.63390501 C178.293183,7.84630607 181.983598,10.701847 184.597642,14.2005277 C187.211686,17.6992084 189.133778,21.3007916 190.363916,25.005277 C191.594054,28.7097625 192.209124,32.4656992 192.209124,36.2730871 C192.209124,43.682058 190.235777,50.1134565 186.289083,55.5672823 C182.342389,61.0211082 176.524859,64.4683377 168.836494,65.908971 L168.836494,66.2176781 C171.501794,67.4525066 173.60328,69.073219 175.140953,71.0798153 C176.678626,73.0864116 178.267555,75.8905013 179.90774,79.4920844 L196.053306,115.610818 L171.450538,115.610818 L161.455664,92.6121372 C157.047668,82.4248021 153.587904,76.0705805 151.076371,73.5494723 C148.564839,71.0283641 144.592517,69.76781 139.159405,69.76781 L134.392619,69.76781 Z M140.697078,21.146438 L136.699129,52.171504 L147.770374,52.171504 C154.84367,52.171504 160.17427,50.5765172 163.762173,47.3865435 C167.350077,44.1965699 169.144029,40.2862797 169.144029,35.6556728 C169.144029,31.1279683 167.606356,27.5778364 164.53101,25.005277 C161.455664,22.4327177 157.150179,21.146438 151.614557,21.146438 L140.697078,21.146438 Z" id="Shape" fill-rule="nonzero"></path>
            <path d="M296.924654,83.0422164 L293.695541,108.047493 C281.189134,114.015831 268.88775,117 256.791389,117 C241.619682,117 229.318298,112.266491 219.887237,102.799472 C210.456176,93.3324538 205.740646,80.9327177 205.740646,65.6002639 C205.740646,46.6662269 212.096361,31.2308707 224.807791,19.2941953 C237.519221,7.35751979 253.972322,1.38918206 274.167094,1.38918206 C282.265505,1.38918206 291.747822,2.8298153 302.614044,5.71108179 L298.923629,26.3944591 C290.722706,23.7189974 282.265505,22.3812665 273.552025,22.3812665 C265.556125,22.3812665 258.534085,23.7961741 252.485905,26.6259894 C246.437724,29.4558047 241.77345,33.1602902 238.49308,37.7394459 C235.212711,42.3186016 232.778063,47.0006596 231.189134,51.7856201 C229.600205,56.5705805 228.805741,61.3298153 228.805741,66.0633245 C228.805741,75.2216359 231.496668,82.5019789 236.878524,87.9043536 C242.260379,93.3067282 249.564326,96.0079156 258.790364,96.0079156 C270.169144,96.0079156 282.880574,91.6860158 296.924654,83.0422164 Z" id="Path" fill-rule="nonzero"></path>
            <path d="M323.833931,115.610818 L299.231164,115.610818 L350.589441,0.926121372 L374.269605,0.926121372 L392.721681,115.610818 L369.810354,115.610818 L366.58124,90.914248 L333.982573,90.914248 L323.833931,115.610818 Z M340.4408,77.6398417 L364.736033,77.6398417 L359.20041,31.025066 L358.892875,31.025066 L340.4408,77.6398417 Z" id="Shape" fill-rule="nonzero"></path>
            <path d="M420.09226,1.69788918 L454.997437,1.69788918 C462.993337,1.69788918 470.194772,2.8298153 476.601743,5.09366755 C483.008713,7.35751979 488.185546,10.3416887 492.13224,14.0461741 C496.078934,17.7506596 499.384931,22.0725594 502.050231,27.0118734 C504.71553,31.9511873 506.560738,36.8905013 507.585853,41.8298153 C508.610969,46.7691293 509.123526,51.8627968 509.123526,57.1108179 C509.123526,73.9868074 504.382368,87.9558047 494.900051,99.01781 C485.417734,110.079815 473.654536,115.610818 459.610456,115.610818 L405.484367,115.610818 L420.09226,1.69788918 Z M439.928242,20.6833773 L430.240902,96.6253298 L451.153255,96.6253298 C459.046643,96.6253298 465.709892,94.6187335 471.143004,90.6055409 C476.576115,86.5923483 480.420297,81.7044855 482.675551,75.9419525 C484.930805,70.1794195 486.058432,63.7994723 486.058432,56.8021108 C486.058432,46.3060686 482.957458,37.6622691 476.75551,30.8707124 C470.553562,24.0791557 461.86571,20.6833773 450.691953,20.6833773 L439.928242,20.6833773 Z" id="Shape" fill-rule="nonzero"></path>
            <polygon id="Path" fill-rule="nonzero" points="596.463352 115.610818 519.73347 115.610818 534.495131 0 600 0 597.539723 19.2941953 554.331112 19.2941953 550.794464 46.6147757 588.774987 46.6147757 586.31471 65.908971 548.334188 65.908971 544.490005 96.3166227 598.923629 96.3166227"></polygon>
        </g>
    </g>
</svg>